<?xml version="1.0" standalone="no"?>
<!DOCTYPE svg PUBLIC "-//W3C//DTD SVG 20010904//EN"
 "http://www.w3.org/TR/2001/REC-SVG-20010904/DTD/svg10.dtd">
<svg version="1.0" xmlns="http://www.w3.org/2000/svg"
 width="1018.000000pt" height="1032.000000pt" viewBox="0 0 1018.000000 1032.000000"
 preserveAspectRatio="xMidYMid meet">

<g transform="translate(0.000000,1032.000000) scale(0.100000,-0.100000)"
fill="#000000" stroke="none">
<path d="M2165 9734 c-895 -120 -1591 -837 -1705 -1754 -14 -118 -14 -5732 0
-5850 48 -386 199 -744 438 -1041 75 -93 238 -251 335 -323 321 -242 673 -372
1070 -396 204 -13 5485 -13 5680 0 483 31 920 227 1256 561 319 319 502 682
578 1144 17 104 18 255 15 2960 -2 1842 -7 2884 -13 2945 -14 134 -53 300
-105 451 -211 617 -730 1094 -1369 1259 -246 63 -65 60 -3213 59 -2347 -1
-2885 -4 -2967 -15z m3485 -733 c291 -39 507 -87 753 -167 980 -320 1817
-1046 2287 -1984 477 -953 557 -2028 226 -3035 -165 -500 -426 -957 -768
-1345 -117 -132 -171 -149 -245 -75 -26 26 -33 41 -33 71 0 48 10 64 138 211
179 206 333 439 471 713 206 410 314 772 373 1250 20 165 17 690 -5 865 -54
417 -159 786 -327 1141 -204 432 -516 858 -844 1154 -495 446 -1065 747 -1677
884 -297 66 -576 91 -962 83 -441 -9 -712 -53 -1112 -184 -909 -297 -1712
-1006 -2135 -1886 -198 -410 -306 -788 -362 -1262 -17 -145 -17 -626 0 -770
73 -612 261 -1143 580 -1635 78 -120 173 -246 296 -388 103 -120 106 -125 106
-172 0 -60 -37 -105 -94 -116 -60 -11 -94 13 -208 148 -494 582 -806 1284
-910 2050 -20 141 -23 208 -23 498 0 351 6 427 51 688 74 432 223 859 434
1242 394 716 1014 1308 1745 1665 377 184 868 322 1290 364 61 6 126 13 145
15 19 2 175 3 345 1 243 -3 343 -8 465 -24z m-85 -475 c427 -53 802 -166 1167
-353 l127 -65 -60 -89 c-34 -49 -63 -89 -65 -89 -3 0 -50 23 -105 51 -129 64
-290 131 -449 184 l-125 43 -13 -29 c-12 -30 -27 -35 -50 -20 -8 5 -11 17 -7
33 4 14 2 28 -3 32 -17 10 -304 65 -422 80 -63 8 -172 18 -242 22 l-127 7 -3
-89 c-3 -85 -4 -89 -27 -92 -12 -2 -34 -1 -47 2 -23 6 -24 10 -24 93 l0 86
-152 -6 c-203 -9 -405 -34 -581 -74 l-69 -15 7 -35 c4 -25 2 -38 -7 -44 -24
-16 -36 -9 -48 26 -6 19 -17 35 -23 35 -18 0 -237 -70 -317 -102 -41 -16 -148
-63 -237 -105 l-162 -76 40 -78 c21 -43 39 -83 39 -88 0 -5 -16 -19 -36 -32
-30 -18 -38 -19 -45 -8 -5 8 -27 44 -50 81 l-41 67 -86 -56 c-146 -93 -282
-196 -397 -300 -153 -138 -146 -126 -100 -173 32 -33 36 -42 25 -55 -19 -23
-32 -19 -70 20 l-34 35 -54 -52 c-83 -81 -247 -289 -339 -430 -46 -70 -83
-129 -83 -132 0 -3 33 -26 73 -52 39 -25 73 -48 75 -49 6 -5 -32 -75 -41 -75
-5 0 -43 18 -83 41 -41 22 -78 38 -83 35 -27 -17 -194 -393 -246 -556 -10 -30
-26 -71 -37 -90 -17 -32 -23 -35 -54 -32 -22 3 -34 9 -34 20 0 8 -3 13 -6 9
-11 -10 -44 27 -44 50 0 30 52 193 102 318 53 132 184 410 218 460 15 22 66
99 113 171 131 199 247 343 422 523 281 287 555 487 920 671 306 153 544 236
865 300 132 26 338 54 480 64 119 8 531 -3 655 -18z m1445 -471 c17 -9 30 -18
30 -21 0 -6 -206 -391 -248 -463 -16 -29 -16 -29 25 -74 47 -50 63 -96 63
-177 0 -137 -66 -220 -175 -220 -48 0 -92 17 -115 45 -15 18 1 44 -192 -315
-67 -124 -160 -295 -206 -380 -47 -85 -125 -229 -174 -320 -85 -156 -124 -227
-397 -714 l-112 -198 13 -74 c39 -235 -110 -438 -341 -463 l-56 -6 -67 -115
c-37 -63 -93 -160 -124 -215 -32 -55 -69 -117 -83 -139 l-25 -38 -61 5 c-110
9 -240 89 -280 173 l-16 35 102 162 c57 89 129 201 160 249 l56 86 -19 59
c-16 45 -19 76 -16 138 5 100 37 174 107 248 64 68 134 106 221 121 l68 11
165 235 c91 129 273 390 403 580 131 190 295 424 364 520 69 96 166 234 215
305 159 233 627 909 652 943 28 37 25 37 63 17z m-1633 -106 c49 -18 93 -69
110 -128 21 -74 12 -169 -22 -226 -45 -77 -145 -106 -225 -65 -74 38 -105 111
-98 232 4 67 9 85 34 120 49 69 127 95 201 67z m-297 -33 c0 -25 -11 -47 -40
-82 -22 -27 -40 -51 -40 -54 0 -3 13 -11 30 -17 37 -14 70 -67 70 -113 0 -41
-28 -92 -64 -115 -79 -52 -292 -9 -258 51 26 45 26 45 65 29 42 -17 110 -20
138 -5 12 7 19 21 19 40 0 36 -23 50 -79 50 -40 0 -41 1 -41 33 0 23 11 46 41
82 l41 50 -86 3 -86 3 0 39 0 40 145 0 145 0 0 -34z m2141 -43 c347 -247 661
-588 911 -991 296 -476 471 -1034 508 -1617 5 -88 10 -181 10 -207 l0 -48
-180 0 -180 0 0 44 c0 50 9 56 98 56 l52 0 0 53 c-1 169 -74 664 -103 693 -2
3 -16 0 -31 -6 -44 -17 -63 -12 -68 15 -5 23 -1 26 38 36 24 6 44 16 44 21 0
5 -21 72 -46 149 -53 163 -125 342 -189 468 l-45 91 -63 -35 c-35 -19 -68 -35
-73 -35 -8 0 -44 61 -44 74 0 2 29 23 65 46 l64 42 -50 81 c-93 150 -186 272
-339 445 l-83 94 -38 -38 c-32 -31 -41 -35 -54 -24 -22 18 -19 30 17 67 l32
33 -44 46 c-55 56 -229 201 -332 278 l-78 57 45 89 c25 50 49 90 54 90 5 0 51
-30 102 -67z m-3511 -372 c0 -30 -9 -50 -40 -89 -44 -55 -47 -62 -25 -62 8 0
29 -13 46 -28 62 -56 46 -167 -31 -207 -54 -28 -191 -17 -250 20 -6 4 -1 23
10 45 l20 39 42 -19 c76 -35 148 -21 148 28 0 39 -17 52 -67 52 l-43 0 0 39
c0 22 3 42 8 45 4 2 23 26 41 51 l34 47 -89 -3 -89 -4 -3 28 c-7 56 -5 57 148
57 l140 0 0 -39z m325 16 c112 -63 129 -288 29 -376 -100 -89 -238 -44 -278
89 -18 62 -20 97 -5 160 29 127 149 187 254 127z m2361 8 c-3 -8 -39 -64 -81
-124 -41 -60 -75 -112 -75 -115 0 -3 20 -6 45 -6 l45 0 0 40 c0 38 2 40 30 40
17 0 30 -3 30 -8 0 -10 -26 -48 -73 -104 l-39 -48 -84 0 -84 0 0 30 c0 29 56
123 157 263 33 45 37 47 85 47 40 0 49 -3 44 -15z m-1131 -445 c-8 -13 22 -19
33 -8 8 8 15 8 24 0 7 -6 29 -12 48 -14 31 -3 35 -6 34 -30 -1 -16 3 -28 7
-28 5 0 7 14 5 31 -3 25 -1 29 13 23 9 -4 26 -8 39 -8 12 -1 22 -5 22 -10 0
-5 7 -3 15 4 13 11 14 10 10 -2 -4 -10 1 -17 14 -21 12 -3 21 0 22 6 0 8 2 8
6 -1 2 -6 9 -10 14 -6 23 14 52 12 71 -6 11 -10 27 -16 34 -13 10 4 12 0 8
-11 -5 -12 -2 -15 10 -10 9 3 16 10 16 14 0 10 26 7 36 -3 4 -4 1 -7 -7 -7 -8
0 -15 -9 -15 -19 0 -15 3 -17 13 -9 8 6 16 8 20 4 3 -3 1 -6 -5 -6 -7 0 -12
-4 -12 -10 0 -12 22 -9 31 4 4 4 10 3 13 -3 4 -6 2 -11 -4 -11 -6 0 -8 -5 -4
-12 5 -8 2 -9 -12 -4 -10 4 -31 10 -46 13 -17 3 -28 12 -28 22 0 12 -2 13 -8
3 -7 -10 -27 -8 -96 8 -137 33 -288 50 -446 50 -80 0 -152 5 -160 10 -8 5 -10
10 -3 10 6 0 10 11 9 24 -2 19 1 23 15 21 10 -2 21 1 25 6 3 6 56 9 125 8 65
0 117 -5 114 -9z m-310 -10 c8 -13 -5 -13 -25 0 -13 8 -13 10 2 10 9 0 20 -4
23 -10z m-15 -25 c0 -2 -9 -3 -20 -2 -11 1 -20 7 -20 14 0 11 5 11 20 3 11 -6
20 -13 20 -15z m-366 -46 c-5 -8 1 -10 19 -7 15 3 28 1 29 -4 4 -12 58 -20 77
-12 9 4 23 8 31 8 8 1 21 5 28 9 7 5 12 4 12 -3 0 -12 3 -11 -100 -35 -91 -22
-253 -77 -336 -115 -41 -18 -61 -23 -61 -15 0 7 7 11 16 8 13 -4 14 -3 2 5 -9
6 -23 7 -37 2 -19 -8 -22 -6 -17 7 4 11 2 14 -5 9 -8 -4 -10 -2 -6 7 3 8 31
27 63 41 66 29 77 32 65 13 -5 -7 0 -3 11 9 11 12 58 34 105 49 47 15 90 28
95 30 6 2 11 4 13 4 2 1 0 -4 -4 -10z m363 5 c-3 -3 -12 -4 -19 -1 -8 3 -5 6
6 6 11 1 17 -2 13 -5z m-137 -14 c0 -5 -5 -10 -11 -10 -5 0 -7 5 -4 10 3 6 8
10 11 10 2 0 4 -4 4 -10z m57 4 c-3 -3 -12 -4 -19 -1 -8 3 -5 6 6 6 11 1 17
-2 13 -5z m583 -190 c0 -3 -28 -93 -62 -200 -62 -194 -62 -194 -91 -194 -19 0
-28 4 -25 13 3 6 33 96 67 200 58 174 64 187 87 187 13 0 24 -3 24 -6z m-790
-126 l0 -93 49 53 c43 45 54 52 87 52 l38 0 -47 -48 c-26 -26 -47 -50 -47 -53
0 -2 20 -31 45 -64 25 -33 45 -63 45 -67 0 -18 -61 -7 -78 13 -61 76 -59 74
-76 60 -9 -8 -16 -28 -16 -47 0 -31 -3 -34 -30 -34 l-30 0 0 160 0 160 30 0
30 0 0 -92z m880 41 c0 -45 2 -50 18 -43 9 5 37 8 61 8 62 0 80 -26 83 -115 1
-38 2 -79 2 -91 1 -19 -4 -23 -29 -23 l-30 0 -3 75 c-3 81 -12 100 -48 100
-41 0 -54 -25 -54 -106 l0 -74 -30 0 -30 0 0 160 0 160 30 0 c29 0 30 -1 30
-51z m-489 -48 c24 -19 25 -19 48 0 32 26 84 24 117 -5 26 -22 28 -29 32 -120
l4 -97 -33 3 -34 3 -3 75 c-3 81 -12 100 -48 100 -33 0 -44 -28 -44 -109 l0
-71 -30 0 -30 0 0 71 c0 82 -11 109 -45 109 -38 0 -55 -35 -55 -112 l0 -68
-30 0 -30 0 0 115 0 115 30 0 c17 0 30 -5 30 -11 0 -5 10 -3 22 5 30 21 70 20
99 -3z m-2317 -95 c49 -20 76 -61 76 -113 0 -58 -16 -86 -90 -158 l-61 -60 83
-5 83 -5 0 -40 0 -40 -152 -3 -153 -3 0 38 c0 33 9 46 95 134 83 84 95 100 95
131 0 27 -5 37 -25 46 -29 13 -79 6 -96 -14 -16 -19 -32 -17 -63 7 -26 21 -27
22 -9 42 45 50 149 71 217 43z m386 -6 c56 -29 91 -93 98 -179 8 -111 -29
-191 -107 -231 -34 -17 -112 -15 -148 4 -96 49 -131 216 -70 336 42 83 142
113 227 70z m4255 -25 l0 -40 -87 -3 -88 -3 0 -39 0 -40 45 0 c123 0 191 -99
137 -200 -39 -72 -164 -96 -265 -52 -26 12 -47 23 -47 26 0 3 7 21 16 40 l17
34 41 -19 c79 -36 160 -15 154 39 -4 37 -40 52 -126 52 l-74 0 7 98 c3 53 9
110 11 125 l6 28 126 -3 127 -3 0 -40z m302 34 c74 -28 113 -99 113 -209 0
-143 -63 -223 -176 -223 -112 0 -178 83 -178 222 1 82 20 136 66 178 44 41
116 55 175 32z m-5790 -635 c8 3 12 2 9 -3 -5 -7 32 -21 152 -57 19 -5 10 -50
-8 -46 -92 21 -259 65 -269 71 -7 5 -10 18 -6 34 l7 25 50 -14 c27 -9 57 -13
65 -10z m5150 -349 c110 -33 195 -137 197 -241 1 -49 -23 -79 -56 -70 -13 3
-20 -5 -28 -32 -5 -21 -10 -51 -10 -67 0 -24 -13 -43 -58 -88 -67 -67 -87 -70
-152 -27 -49 33 -76 37 -105 17 -17 -13 -17 -17 0 -108 9 -52 29 -139 44 -194
24 -93 29 -101 66 -127 22 -15 96 -53 165 -85 120 -56 128 -58 208 -58 l82 0
39 43 c29 31 46 42 69 42 45 0 54 -18 46 -93 -4 -36 -1 -101 6 -150 12 -89 9
-110 -15 -101 -15 6 -45 92 -45 130 0 28 -24 47 -50 39 -17 -5 -20 -15 -20
-64 0 -46 -5 -66 -26 -97 -15 -21 -34 -45 -43 -52 -29 -24 -115 -61 -158 -68
-40 -6 -43 -5 -53 21 -14 36 -4 46 64 69 66 23 122 66 114 88 -8 20 -94 60
-231 107 -215 74 -295 111 -325 147 -16 19 -54 98 -85 177 -32 78 -68 160 -82
182 l-24 40 -1 -41 c0 -24 -6 -47 -15 -54 -8 -7 -65 -23 -127 -36 -113 -24
-220 -67 -251 -102 -16 -18 -12 -21 112 -76 224 -100 360 -194 377 -262 18
-71 -30 -106 -166 -123 -47 -6 -101 -14 -120 -16 l-35 -6 28 25 27 25 -22 15
c-13 8 -44 24 -70 36 -37 17 -60 39 -103 98 -30 43 -64 83 -76 90 -19 12 -20
12 -14 -10 4 -13 16 -40 26 -60 68 -134 179 -441 179 -495 0 -19 -21 -104 -46
-187 -112 -373 -149 -556 -125 -629 16 -49 75 -107 160 -157 47 -28 71 -48 71
-61 0 -39 -69 -50 -156 -24 -65 19 -276 119 -292 137 -14 17 -7 42 37 144 35
82 46 143 61 344 12 158 31 267 61 344 l19 51 -37 55 c-20 30 -85 126 -145
212 -121 174 -158 208 -283 263 -89 39 -111 53 -119 81 -11 36 17 55 69 48
l43 -6 -5 59 c-11 118 48 243 170 364 221 219 542 334 836 300 60 -8 114 -10
120 -7 16 10 14 41 -6 96 -16 46 -16 50 2 83 18 34 18 35 -3 69 -26 43 -27 45
-4 52 33 10 238 -3 289 -19z m-4367 -345 c133 -68 132 -337 -2 -406 -61 -32
-157 -16 -199 32 -39 45 -53 88 -54 169 0 67 4 89 26 130 45 88 142 119 229
75z m5023 9 c42 -11 44 -17 21 -60 -11 -22 -20 -29 -32 -24 -85 33 -156 2
-175 -77 -7 -27 -7 -27 20 -12 62 32 178 6 198 -44 20 -49 24 -78 15 -112 -34
-127 -236 -144 -305 -25 -73 124 -20 311 100 353 40 14 111 14 158 1z m347 -9
c25 -13 49 -37 67 -67 25 -42 28 -58 28 -133 0 -68 -5 -93 -22 -127 -77 -144
-267 -126 -319 30 -23 68 -15 170 17 228 45 82 145 112 229 69z m-5700 -205
l0 -215 -45 0 -45 0 0 174 0 175 -42 3 c-42 3 -43 4 -46 41 l-3 37 90 0 91 0
0 -215z m-332 8 l3 -53 -180 0 -181 0 0 55 0 55 178 -2 177 -3 3 -52z m4944
-654 c23 -9 32 -28 73 -157 50 -157 175 -474 300 -766 73 -172 76 -179 59
-198 -11 -11 -28 -18 -43 -16 -36 4 -68 64 -227 419 -77 173 -143 309 -150
309 -19 0 -94 -78 -323 -340 -297 -338 -285 -323 -272 -361 17 -49 13 -116 -9
-159 -23 -45 -36 -49 -74 -19 -41 32 -66 90 -66 152 0 112 3 116 336 496 170
194 310 359 312 367 5 20 -31 18 -270 -13 -131 -17 -211 -24 -217 -18 -5 6
-12 29 -16 51 l-6 41 73 7 c85 9 417 62 441 72 21 8 21 23 2 94 -8 30 -15 56
-15 58 0 5 62 -8 92 -19z m-1128 -141 c19 -40 62 -118 94 -173 85 -142 90
-164 62 -270 -13 -47 -24 -85 -26 -85 -1 0 -14 36 -29 80 -15 44 -30 82 -35
85 -4 3 -25 -20 -45 -49 l-37 -55 45 -58 c88 -113 95 -140 80 -295 -5 -63 -8
-68 -29 -68 -18 0 -25 7 -29 28 -23 106 -103 264 -142 279 -12 5 -30 -9 -62
-47 -25 -29 -88 -101 -138 -159 -51 -58 -93 -110 -93 -116 0 -11 114 -28 368
-56 56 -7 102 -16 102 -21 0 -7 -37 -86 -44 -95 -2 -2 -98 13 -215 32 -210 35
-212 36 -239 17 -41 -29 -67 -34 -104 -19 -43 18 -59 38 -65 84 -7 53 29 105
81 117 38 10 103 77 266 273 l51 62 -40 25 c-191 121 -457 87 -626 -80 -179
-176 -222 -418 -112 -637 89 -179 279 -297 477 -297 176 0 358 98 451 243 l38
58 15 -29 c9 -17 27 -39 41 -50 14 -11 25 -24 25 -30 0 -5 -20 -37 -44 -69
-75 -99 -202 -186 -336 -228 -42 -14 -103 -19 -265 -23 -245 -5 -1134 9 -1090
18 23 4 30 11 29 28 0 15 6 24 20 27 12 2 181 9 376 16 195 6 357 13 359 15 3
3 -6 12 -20 21 -44 29 -144 139 -178 197 -96 161 -122 376 -65 550 55 171 190
328 344 403 99 48 201 73 300 73 119 0 271 -43 351 -101 l30 -21 30 28 c44 42
109 143 109 169 0 13 -18 80 -39 149 -21 69 -37 126 -36 126 2 0 19 -33 39
-72z m-3769 -9 c4 -11 5 -22 3 -24 -5 -5 -272 -75 -275 -72 -1 2 -4 14 -5 27
-3 21 5 25 117 56 145 39 152 39 160 13z m5459 -289 c306 -78 506 -339 506
-659 0 -117 -17 -189 -72 -301 -33 -69 -57 -101 -127 -171 -147 -145 -303
-206 -506 -196 -282 14 -524 197 -608 462 -18 58 -22 93 -22 205 0 115 3 146
24 208 35 106 132 248 213 312 l28 21 25 -56 25 -57 -51 -61 c-103 -123 -145
-244 -136 -397 6 -109 30 -189 81 -265 101 -152 260 -238 441 -239 309 -1 548
236 548 544 0 235 -138 431 -361 512 -43 16 -83 21 -166 22 l-108 2 -19 49
c-11 28 -19 55 -19 62 0 27 201 30 304 3z m-4677 -49 c127 -58 148 -298 33
-394 -57 -48 -145 -48 -207 -1 -62 47 -93 152 -73 248 15 72 45 116 100 144
54 27 92 28 147 3z m1924 -43 l-40 -43 -98 4 c-74 3 -88 6 -57 11 50 7 112 49
92 61 -8 5 18 9 65 9 l79 0 -41 -42z m-2358 -343 c9 -20 17 -39 17 -44 0 -9
-117 -82 -232 -144 l-66 -37 -21 34 c-12 18 -21 38 -21 43 0 6 48 38 108 71
59 33 123 72 142 86 46 33 53 32 73 -9z m2137 -50 c-4 -25 -9 -47 -11 -49 -2
-2 -51 0 -109 4 -58 4 -87 8 -65 9 22 1 46 5 53 10 17 10 12 42 -8 58 -12 10
1 12 66 13 l81 0 -7 -45z m-1252 -1220 c82 -20 147 -54 208 -109 l49 -45 -69
-70 -69 -70 -34 29 c-55 48 -112 73 -184 78 -124 9 -222 -47 -276 -156 -24
-50 -28 -69 -28 -147 0 -102 18 -153 75 -219 54 -61 121 -90 210 -90 85 0 139
21 200 79 l35 33 73 -67 73 -68 -65 -60 c-86 -81 -147 -105 -282 -111 -120 -5
-190 8 -276 51 -77 38 -176 133 -212 205 -53 104 -70 237 -46 363 51 267 337
440 618 374z m1403 1 c85 -18 153 -53 215 -110 l49 -45 -69 -70 -69 -70 -36
31 c-148 130 -371 94 -458 -76 -38 -73 -44 -197 -14 -278 44 -116 142 -182
271 -182 87 -1 145 22 199 78 l34 35 68 -62 c38 -33 69 -66 69 -73 0 -18 -93
-100 -141 -125 -68 -35 -136 -49 -234 -49 -304 0 -506 201 -507 505 0 77 5
115 22 164 83 247 335 383 601 327z m2725 -1 c72 -15 156 -46 180 -66 16 -13
-48 -175 -68 -172 -7 1 -42 13 -77 28 -119 50 -277 44 -321 -13 -34 -43 -20
-105 30 -132 10 -6 78 -26 150 -45 159 -42 230 -76 279 -132 122 -138 53 -362
-134 -433 -84 -32 -253 -39 -362 -15 -80 17 -191 64 -212 89 -9 11 -4 31 24
92 20 43 37 79 39 81 1 2 27 -10 57 -26 116 -63 291 -85 370 -47 55 26 74 80
43 124 -23 33 -60 49 -204 87 -71 19 -151 46 -178 59 -58 30 -115 90 -132 141
-16 50 -9 161 15 210 71 145 278 216 501 170z m-3506 -495 l0 -490 -115 0
-115 0 0 490 0 490 115 0 115 0 0 -490z m1403 363 c4 -71 7 -248 7 -395 l0
-268 230 0 230 0 0 -95 0 -95 -340 0 -339 0 -3 178 c-2 97 -5 318 -6 490 l-2
312 108 0 109 0 6 -127z m789 -190 c3 -282 5 -323 22 -360 56 -130 228 -164
327 -64 21 21 41 54 47 76 6 22 14 181 18 353 l7 312 104 0 104 0 -3 -348 -3
-348 -38 -76 c-45 -91 -112 -156 -195 -190 -49 -19 -75 -23 -182 -23 -152 0
-210 19 -294 96 -124 113 -136 164 -136 577 l0 312 109 0 110 0 3 -317z"/>
<path d="M6681 7356 c-28 -52 -51 -102 -51 -111 0 -24 46 -65 73 -65 13 0 34
12 48 26 19 21 24 38 27 98 4 72 -15 146 -37 146 -5 0 -32 -42 -60 -94z"/>
<path d="M5282 7863 c-40 -16 -58 -163 -27 -223 25 -49 84 -54 117 -9 37 50
36 176 -3 218 -19 20 -57 26 -87 14z"/>
<path d="M3920 7447 c-64 -32 -66 -213 -4 -254 57 -37 114 25 114 125 0 68
-22 119 -55 132 -31 12 -25 12 -55 -3z"/>
<path d="M5037 7029 c7 -7 15 -10 18 -7 3 3 -2 9 -12 12 -14 6 -15 5 -6 -5z"/>
<path d="M3002 6500 c-30 -13 -52 -67 -52 -130 0 -98 48 -158 106 -132 73 34
72 234 -1 262 -15 6 -27 10 -28 9 -1 0 -12 -4 -25 -9z"/>
<path d="M7556 6481 c-53 -58 -36 -227 25 -246 31 -10 67 2 80 28 31 57 27
181 -7 218 -23 25 -76 25 -98 0z"/>
<path d="M2554 5180 c-48 -19 -70 -153 -36 -220 19 -39 63 -61 90 -44 45 27
64 124 42 205 -15 53 -53 76 -96 59z"/>
<path d="M7527 5010 c-40 -32 -36 -74 10 -99 32 -16 60 -14 83 9 60 60 -25
143 -93 90z"/>
<path d="M7893 5153 c-14 -20 -18 -47 -18 -109 0 -73 3 -85 24 -108 70 -74
147 22 127 158 -9 56 -37 86 -81 86 -26 0 -39 -6 -52 -27z"/>
<path d="M2707 3817 c-44 -43 -44 -181 -1 -228 26 -29 81 -22 108 14 30 40 30
164 0 204 -28 38 -75 43 -107 10z"/>
</g>
</svg>
